  0
SECTION
  2
HEADER
  9
$ACADVER
  1
AC1015
  9
$ACADMAINTVER
 70
     6
  9
$DWGCODEPAGE
  3
ANSI_1252
  9
$INSBASE
 10
0.0
 20
0.0
 30
0.0
  9
$EXTMIN
 10
0.0
 20
0.0
 30
0.0
  9
$EXTMAX
 10
297.0
 20
210.0
 30
0.0
  9
$LIMMIN
 10
0.0
 20
0.0
  9
$LIMMAX
 10
297.0
 20
210.0
  9
$ORTHOMODE
 70
     0
  9
$REGENMODE
 70
     1
  9
$FILLMODE
 70
     1
  9
$QTEXTMODE
 70
     0
  9
$MIRRTEXT
 70
     1
  9
$LTSCALE
 40
1.0
  9
$ATTMODE
 70
     1
  9
$TEXTSIZE
 40
3.5
  9
$TRACEWID
 40
1.0
  9
$TEXTSTYLE
  7
Standard
  9
$CLAYER
  8
0
  9
$CELTYPE
  6
ByLayer
  9
$CECOLOR
 62
   256
  9
$CELTSCALE
 40
1.0
  9
$DISPSILH
 70
     0
  9
$DIMSCALE
 40
1.0
  9
$DIMASZ
 40
3.302
  9
$DIMEXO
 40
1.0
  9
$DIMDLI
 40
3.75
  9
$DIMRND
 40
0.0
  9
$DIMDLE
 40
0.0
  9
$DIMEXE
 40
1.0
  9
$DIMTP
 40
0.0
  9
$DIMTM
 40
0.0
  9
$DIMTXT
 40
3.5
  9
$DIMCEN
 40
2.5
  9
$DIMTSZ
 40
0.0
  9
$DIMTOL
 70
     0
  9
$DIMLIM
 70
     0
  9
$DIMTIH
 70
     1
  9
$DIMTOH
 70
     1
  9
$DIMSE1
 70
     0
  9
$DIMSE2
 70
     0
  9
$DIMTAD
 70
     1
  9
$DIMZIN
 70
     1
  9
$DIMBLK
  1

  9
$DIMASO
 70
     1
  9
$DIMSHO
 70
     1
  9
$DIMPOST
  1

  9
$DIMAPOST
  1

  9
$DIMALT
 70
     0
  9
$DIMALTD
 70
     3
  9
$DIMALTF
 40
0.0393700787
  9
$DIMLFAC
 40
1.0
  9
$DIMTOFL
 70
     1
  9
$DIMTVP
 40
0.0
  9
$DIMTIX
 70
     0
  9
$DIMSOXD
 70
     0
  9
$DIMSAH
 70
     0
  9
$DIMBLK1
  1

  9
$DIMBLK2
  1

  9
$DIMSTYLE
  2
ISO-25
  9
$DIMCLRD
 70
     0
  9
$DIMCLRE
 70
     0
  9
$DIMCLRT
 70
     0
  9
$DIMTFAC
 40
1.0
  9
$DIMGAP
 40
1.524
  9
$DIMJUST
 70
     0
  9
$DIMSD1
 70
     0
  9
$DIMSD2
 70
     0
  9
$DIMTOLJ
 70
     0
  9
$DIMTZIN
 70
     1
  9
$DIMALTZ
 70
     0
  9
$DIMALTTZ
 70
     0
  9
$DIMUPT
 70
     0
  9
$DIMDEC
 70
     4
  9
$DIMTDEC
 70
     4
  9
$DIMALTU
 70
     2
  9
$DIMALTTD
 70
     3
  9
$DIMTXSTY
  7
Standard
  9
$DIMAUNIT
 70
     0
  9
$DIMADEC
 70
     0
  9
$DIMALTRND
 40
0.0
  9
$DIMAZIN
 70
     0
  9
$DIMDSEP
 70
    44
  9
$DIMATFIT
 70
     3
  9
$DIMFRAC
 70
     0
  9
$DIMLDRBLK
  1

  9
$DIMLUNIT
 70
     2
  9
$DIMLWD
 70
    -2
  9
$DIMLWE
 70
    -2
  9
$DIMTMOVE
 70
     0
  9
$LUNITS
 70
     2
  9
$LUPREC
 70
     2
  9
$SKETCHINC
 40
1.0
  9
$FILLETRAD
 40
10.0
  9
$AUNITS
 70
     0
  9
$AUPREC
 70
     0
  9
$MENU
  1
.
  9
$ELEVATION
 40
0.0
  9
$PELEVATION
 40
0.0
  9
$THICKNESS
 40
0.0
  9
$LIMCHECK
 70
     0
  9
$CHAMFERA
 40
0.0
  9
$CHAMFERB
 40
0.0
  9
$CHAMFERC
 40
0.0
  9
$CHAMFERD
 40
0.0
  9
$SKPOLY
 70
     0
  9
$TDCREATE
 40
2457788.548617292
  9
$TDUCREATE
 40
2457788.506950625
  9
$TDUPDATE
 40
2457788.54861765
  9
$TDUUPDATE
 40
2457788.506950984
  9
$TDINDWG
 40
0.0000000116
  9
$TDUSRTIMER
 40
0.0000000116
  9
$USRTIMER
 70
     1
  9
$ANGBASE
 50
0.0
  9
$ANGDIR
 70
     0
  9
$PDMODE
 70
     0
  9
$PDSIZE
 40
-1.0
  9
$PLINEWID
 40
0.0
  9
$SPLFRAME
 70
     0
  9
$SPLINETYPE
 70
     6
  9
$SPLINESEGS
 70
     8
  9
$HANDSEED
  5
D7
  9
$SURFTAB1
 70
     6
  9
$SURFTAB2
 70
     6
  9
$SURFTYPE
 70
     6
  9
$SURFU
 70
     6
  9
$SURFV
 70
     6
  9
$UCSBASE
  2

  9
$UCSNAME
  2

  9
$UCSORG
 10
0.0
 20
0.0
 30
0.0
  9
$UCSXDIR
 10
1.0
 20
0.0
 30
0.0
  9
$UCSYDIR
 10
0.0
 20
1.0
 30
0.0
  9
$UCSORTHOREF
  2

  9
$UCSORTHOVIEW
 70
     0
  9
$UCSORGTOP
 10
0.0
 20
0.0
 30
0.0
  9
$UCSORGBOTTOM
 10
0.0
 20
0.0
 30
0.0
  9
$UCSORGLEFT
 10
0.0
 20
0.0
 30
0.0
  9
$UCSORGRIGHT
 10
0.0
 20
0.0
 30
0.0
  9
$UCSORGFRONT
 10
0.0
 20
0.0
 30
0.0
  9
$UCSORGBACK
 10
0.0
 20
0.0
 30
0.0
  9
$PUCSBASE
  2

  9
$PUCSNAME
  2

  9
$PUCSORG
 10
0.0
 20
0.0
 30
0.0
  9
$PUCSXDIR
 10
1.0
 20
0.0
 30
0.0
  9
$PUCSYDIR
 10
0.0
 20
1.0
 30
0.0
  9
$PUCSORTHOREF
  2

  9
$PUCSORTHOVIEW
 70
     0
  9
$PUCSORGTOP
 10
0.0
 20
0.0
 30
0.0
  9
$PUCSORGBOTTOM
 10
0.0
 20
0.0
 30
0.0
  9
$PUCSORGLEFT
 10
0.0
 20
0.0
 30
0.0
  9
$PUCSORGRIGHT
 10
0.0
 20
0.0
 30
0.0
  9
$PUCSORGFRONT
 10
0.0
 20
0.0
 30
0.0
  9
$PUCSORGBACK
 10
0.0
 20
0.0
 30
0.0
  9
$USERI1
 70
     0
  9
$USERI2
 70
     0
  9
$USERI3
 70
     0
  9
$USERI4
 70
     0
  9
$USERI5
 70
     0
  9
$USERR1
 40
0.0
  9
$USERR2
 40
0.0
  9
$USERR3
 40
0.0
  9
$USERR4
 40
0.0
  9
$USERR5
 40
0.0
  9
$WORLDVIEW
 70
     1
  9
$SHADEDGE
 70
     3
  9
$SHADEDIF
 70
    70
  9
$TILEMODE
 70
     1
  9
$MAXACTVP
 70
    64
  9
$PINSBASE
 10
0.0
 20
0.0
 30
0.0
  9
$PLIMCHECK
 70
     0
  9
$PEXTMIN
 10
1.0000000000E+20
 20
1.0000000000E+20
 30
1.0000000000E+20
  9
$PEXTMAX
 10
-1.0000000000E+20
 20
-1.0000000000E+20
 30
-1.0000000000E+20
  9
$PLIMMIN
 10
0.0
 20
0.0
  9
$PLIMMAX
 10
420.0
 20
297.0
  9
$UNITMODE
 70
     0
  9
$VISRETAIN
 70
     1
  9
$PLINEGEN
 70
     0
  9
$PSLTSCALE
 70
     1
  9
$TREEDEPTH
 70
  3020
  9
$CMLSTYLE
  2
Standard
  9
$CMLJUST
 70
     0
  9
$CMLSCALE
 40
20.0
  9
$PROXYGRAPHICS
 70
     1
  9
$MEASUREMENT
 70
     1
  9
$CELWEIGHT
370
    -1
  9
$ENDCAPS
280
     0
  9
$JOINSTYLE
280
     0
  9
$LWDISPLAY
290
     1
  9
$INSUNITS
 70
     4
  9
$HYPERLINKBASE
  1

  9
$STYLESHEET
  1

  9
$XEDIT
290
     1
  9
$CEPSNTYPE
380
     0
  9
$PSTYLEMODE
290
     1
  9
$FINGERPRINTGUID
  2
{3F83D6ED-1BD0-4EF1-8848-13878226DBFC}
  9
$VERSIONGUID
  2
{FAEB1C32-E019-11D5-929B-00C0DF256EC4}
  9
$EXTNAMES
290
     1
  9
$PSVPSCALE
 40
0.0
  9
$OLESTARTUP
290
     0
  0
ENDSEC
  0
SECTION
  2
CLASSES
  0
CLASS
  1
ACDBDICTIONARYWDFLT
  2
AcDbDictionaryWithDefault
  3
ObjectDBX Classes
 90
        0
280
     0
281
     0
  0
CLASS
  1
VISUALSTYLE
  2
AcDbVisualStyle
  3
ObjectDBX Classes
 90
     4095
280
     0
281
     0
  0
CLASS
  1
MATERIAL
  2
AcDbMaterial
  3
ObjectDBX Classes
 90
     1153
280
     0
281
     0
  0
CLASS
  1
SCALE
  2
AcDbScale
  3
ObjectDBX Classes
 90
     1153
280
     0
281
     0
  0
CLASS
  1
TABLESTYLE
  2
AcDbTableStyle
  3
ObjectDBX Classes
 90
     4095
280
     0
281
     0
  0
CLASS
  1
MLEADERSTYLE
  2
AcDbMLeaderStyle
  3
ACDB_MLEADERSTYLE_CLASS
 90
     4095
280
     0
281
     0
  0
CLASS
  1
SUN
  2
AcDbSun
  3
SCENEOE
 90
     1153
280
     0
281
     0
  0
CLASS
  1
ACDBPLACEHOLDER
  2
AcDbPlaceHolder
  3
ObjectDBX Classes
 90
        0
280
     0
281
     0
  0
CLASS
  1
LAYOUT
  2
AcDbLayout
  3
ObjectDBX Classes
 90
        0
280
     0
281
     0
  0
ENDSEC
  0
SECTION
  2
TABLES
  0
TABLE
  2
VPORT
  5
8
330
0
100
AcDbSymbolTable
 70
     1
  0
VPORT
  5
29
330
8
100
AcDbSymbolTableRecord
100
AcDbViewportTableRecord
  2
*Active
 70
     0
 10
0.0
 20
0.0
 11
1.0
 21
1.0
 12
148.5
 22
105.0
 13
0.0
 23
0.0
 14
10.0
 24
10.0
 15
10.0
 25
10.0
 16
0.0
 26
0.0
 36
1.0
 17
0.0
 27
0.0
 37
0.0
 40
210.0
 41
1.4142857143
 42
50.0
 43
0.0
 44
0.0
 50
0.0
 51
0.0
 71
     0
 72
  2000
 73
     1
 74
     3
 75
     0
 76
     0
 77
     0
 78
     0
281
     0
 65
     1
110
0.0
120
0.0
130
0.0
111
1.0
121
0.0
131
0.0
112
0.0
122
1.0
132
0.0
 79
     0
146
0.0
  0
ENDTAB
  0
TABLE
  2
LTYPE
  5
5
330
0
100
AcDbSymbolTable
 70
     6
  0
LTYPE
  5
14
330
5
100
AcDbSymbolTableRecord
100
AcDbLinetypeTableRecord
  2
ByBlock
 70
     0
  3

 72
    65
 73
     0
 40
0.0
  0
LTYPE
  5
15
330
5
100
AcDbSymbolTableRecord
100
AcDbLinetypeTableRecord
  2
ByLayer
 70
     0
  3

 72
    65
 73
     0
 40
0.0
  0
LTYPE
  5
16
330
5
100
AcDbSymbolTableRecord
100
AcDbLinetypeTableRecord
  2
Continuous
 70
     0
  3
Solid line
 72
    65
 73
     0
 40
0.0
  0
LTYPE
  5
6E
330
5
100
AcDbSymbolTableRecord
100
AcDbLinetypeTableRecord
  2
HIDDEN
 70
     0
  3
Hidden __ __ __ __ __ __ __ __ __ __ __ __ __ __
 72
    65
 73
     2
 40
1.905
 49
1.27
 74
     0
 49
-0.635
 74
     0
  0
LTYPE
  5
6F
330
5
100
AcDbSymbolTableRecord
100
AcDbLinetypeTableRecord
  2
PHANTOM
 70
     0
  3
Phantom ______  __  __  ______  __  __  ______
 72
    65
 73
     6
 40
12.7
 49
6.35
 74
     0
 49
-1.27
 74
     0
 49
1.27
 74
     0
 49
-1.27
 74
     0
 49
1.27
 74
     0
 49
-1.27
 74
     0
  0
LTYPE
  5
70
330
5
100
AcDbSymbolTableRecord
100
AcDbLinetypeTableRecord
  2
CENTER
 70
     0
  3
Center ____ _ ____ _ ____ _ ____ _ ____ _ ____
 72
    65
 73
     4
 40
10.16
 49
6.35
 74
     0
 49
-1.27
 74
     0
 49
1.27
 74
     0
 49
-1.27
 74
     0
  0
LTYPE
  5
71
330
5
100
AcDbSymbolTableRecord
100
AcDbLinetypeTableRecord
  2
CENTERX2
 70
     0
  3
Center (2x) ________  __  ________  __  _____
 72
    65
 73
     4
 40
20.32
 49
12.7
 74
     0
 49
-2.54
 74
     0
 49
2.54
 74
     0
 49
-2.54
 74
     0
  0
LTYPE
  5
72
330
5
100
AcDbSymbolTableRecord
100
AcDbLinetypeTableRecord
  2
DOT2
 70
     0
  3
Dot (.5x) ........................................
 72
    65
 73
     2
 40
0.635
 49
0.0
 74
     0
 49
-0.635
 74
     0
  0
ENDTAB
  0
TABLE
  2
LAYER
  5
2
330
0
100
AcDbSymbolTable
 70
     2
  0
LAYER
  5
10
330
2
100
AcDbSymbolTableRecord
100
AcDbLayerTableRecord
  2
0
 70
     0
 62
     7
  6
Continuous
370
    -3
390
F
  0
LAYER
  5
73
330
2
100
AcDbSymbolTableRecord
100
AcDbLayerTableRecord
  2
SLD-0
 70
     0
 62
   179
  6
Continuous
370
    -3
390
F
  0
ENDTAB
  0
TABLE
  2
STYLE
  5
3
330
0
100
AcDbSymbolTable
 70
     2
  0
STYLE
  5
11
330
3
100
AcDbSymbolTableRecord
100
AcDbTextStyleTableRecord
  2
Standard
 70
     0
 40
0.0
 41
1.0
 50
0.0
 71
     0
 42
3.5
  3
txt
  4

  0
STYLE
  5
8F
330
3
100
AcDbSymbolTableRecord
100
AcDbTextStyleTableRecord
  2
SLDTEXTSTYLE0
 70
     0
 40
0.0
 41
0.75
 50
0.0
 71
     0
 42
3.5
  3
TXT
  4

  0
ENDTAB
  0
TABLE
  2
VIEW
  5
6
330
0
100
AcDbSymbolTable
 70
     0
  0
ENDTAB
  0
TABLE
  2
UCS
  5
7
330
0
100
AcDbSymbolTable
 70
     0
  0
ENDTAB
  0
TABLE
  2
APPID
  5
9
330
0
100
AcDbSymbolTable
 70
     1
  0
APPID
  5
12
330
9
100
AcDbSymbolTableRecord
100
AcDbRegAppTableRecord
  2
ACAD
 70
     0
  0
ENDTAB
  0
TABLE
  2
DIMSTYLE
  5
A
330
0
100
AcDbSymbolTable
 70
     3
100
AcDbDimStyleTable
  0
DIMSTYLE
105
27
330
A
100
AcDbSymbolTableRecord
100
AcDbDimStyleTableRecord
  2
ISO-25
 70
     0
 41
2.5
 42
0.625
 43
3.75
 44
1.25
 73
     0
 74
     0
 77
     1
 78
     8
140
2.5
141
2.5
143
0.0393700787
147
0.625
171
     3
172
     1
178
     0
271
     2
272
     2
274
     3
278
    44
283
     0
284
     8
340
11
  0
DIMSTYLE
105
90
102
{ACAD_REACTORS
330
8E
330
CD
102
}
330
A
100
AcDbSymbolTableRecord
100
AcDbDimStyleTableRecord
  2
SLDDIMSTYLE0
 70
     0
 41
3.302
 44
0.0
 45
0.000000001
 73
     0
 74
     0
 77
     1
 78
    12
 79
     3
140
3.5
147
0.875
173
     1
178
     0
276
     2
284
    12
340
8F
  0
DIMSTYLE
105
9B
102
{ACAD_REACTORS
330
9A
330
A5
330
AF
330
B9
330
C3
102
}
330
A
100
AcDbSymbolTableRecord
100
AcDbDimStyleTableRecord
  2
SLDDIMSTYLE1
 70
     0
 41
3.302
 44
0.0
 45
0.000000001
 73
     0
 74
     0
 77
     1
 78
    12
 79
     3
140
3.5
147
0.875
172
     1
173
     1
178
     0
276
     2
284
    12
289
     0
340
8F
  0
ENDTAB
  0
TABLE
  2
BLOCK_RECORD
  5
1
330
0
100
AcDbSymbolTable
 70
     8
  0
BLOCK_RECORD
  5
1F
330
1
100
AcDbSymbolTableRecord
100
AcDbBlockTableRecord
  2
*Model_Space
340
22
  0
BLOCK_RECORD
  5
1B
330
1
100
AcDbSymbolTableRecord
100
AcDbBlockTableRecord
  2
*Paper_Space
340
1E
  0
BLOCK_RECORD
  5
23
330
1
100
AcDbSymbolTableRecord
100
AcDbBlockTableRecord
  2
*Paper_Space0
340
26
  0
BLOCK_RECORD
  5
91
330
1
100
AcDbSymbolTableRecord
100
AcDbBlockTableRecord
  2
_D
340
0
  0
BLOCK_RECORD
  5
9C
330
1
100
AcDbSymbolTableRecord
100
AcDbBlockTableRecord
  2
_D_1
340
0
  0
BLOCK_RECORD
  5
A6
330
1
100
AcDbSymbolTableRecord
100
AcDbBlockTableRecord
  2
_D_2
340
0
  0
BLOCK_RECORD
  5
B0
330
1
100
AcDbSymbolTableRecord
100
AcDbBlockTableRecord
  2
_D_3
340
0
  0
BLOCK_RECORD
  5
BA
330
1
100
AcDbSymbolTableRecord
100
AcDbBlockTableRecord
  2
_D_4
340
0
  0
BLOCK_RECORD
  5
C4
330
1
100
AcDbSymbolTableRecord
100
AcDbBlockTableRecord
  2
_D_5
340
0
  0
BLOCK_RECORD
  5
CE
330
1
100
AcDbSymbolTableRecord
100
AcDbBlockTableRecord
  2
_D_6
340
0
  0
ENDTAB
  0
ENDSEC
  0
SECTION
  2
BLOCKS
  0
BLOCK
  5
20
330
1F
100
AcDbEntity
  8
0
100
AcDbBlockBegin
  2
*Model_Space
 70
     0
 10
0.0
 20
0.0
 30
0.0
  3
*Model_Space
  1

  0
ENDBLK
  5
21
330
1F
100
AcDbEntity
  8
0
100
AcDbBlockEnd
  0
BLOCK
  5
1C
330
1B
100
AcDbEntity
 67
     1
  8
0
100
AcDbBlockBegin
  2
*Paper_Space
 70
     0
 10
0.0
 20
0.0
 30
0.0
  3
*Paper_Space
  1

  0
ENDBLK
  5
1D
330
1B
100
AcDbEntity
 67
     1
  8
0
100
AcDbBlockEnd
  0
BLOCK
  5
24
330
23
100
AcDbEntity
  8
0
100
AcDbBlockBegin
  2
*Paper_Space0
 70
     0
 10
0.0
 20
0.0
 30
0.0
  3
*Paper_Space0
  1

  0
ENDBLK
  5
25
330
23
100
AcDbEntity
  8
0
100
AcDbBlockEnd
  0
BLOCK
  5
92
330
91
100
AcDbEntity
  8
0
100
AcDbBlockBegin
  2
_D
 70
     0
 10
0.0
 20
0.0
 30
0.0
  3
_D
  1

  0
SOLID
  5
94
330
91
100
AcDbEntity
  8
SLD-0
100
AcDbTrace
 10
79.5356659135
 20
35.1933601952
 30
0.0
 11
80.0436659135
 21
38.4953601952
 31
0.0
 12
79.0276659135
 22
38.4953601952
 32
0.0
 13
79.0276659135
 23
38.4953601952
 33
0.0
  0
SOLID
  5
95
330
91
100
AcDbEntity
  8
SLD-0
100
AcDbTrace
 10
79.5356659135
 20
185.1047217518
 30
0.0
 11
79.0276659135
 21
181.8027217518
 31
0.0
 12
80.0436659135
 22
181.8027217518
 32
0.0
 13
80.0436659135
 23
181.8027217518
 33
0.0
  0
LINE
  5
96
330
91
100
AcDbEntity
  8
SLD-0
100
AcDbLine
 10
103.8971557654
 20
35.1933601952
 30
0.0
 11
78.5356659135
 21
35.1933601952
 31
0.0
  0
LINE
  5
97
330
91
100
AcDbEntity
  8
SLD-0
100
AcDbLine
 10
103.8971557654
 20
185.1047217518
 30
0.0
 11
78.5356659135
 21
185.1047217518
 31
0.0
  0
LINE
  5
98
330
91
100
AcDbEntity
  8
SLD-0
100
AcDbLine
 10
79.5356659135
 20
35.1933601952
 30
0.0
 11
79.5356659135
 21
185.1047217518
 31
0.0
  0
MTEXT
  5
99
330
91
100
AcDbEntity
  8
SLD-0
100
AcDbMText
 10
75.0239289989
 20
146.4009970247
 30
0.0
 40
3.5
 41
0.0
 71
     1
 72
     1
  1
149,9114
  7
SLDTEXTSTYLE0
 11
6.123233995736766E-17
 21
1.0
 31
0.0
 73
     1
 44
1.0
  0
ENDBLK
  5
93
330
91
100
AcDbEntity
  8
0
100
AcDbBlockEnd
  0
BLOCK
  5
9D
330
9C
100
AcDbEntity
  8
0
100
AcDbBlockBegin
  2
_D_1
 70
     0
 10
0.0
 20
0.0
 30
0.0
  3
_D_1
  1

  0
SOLID
  5
9F
330
9C
100
AcDbEntity
  8
SLD-0
100
AcDbTrace
 10
209.6509224931
 20
185.1033326804
 30
0.0
 11
209.1427372009
 21
181.8013611922
 31
0.0
 12
210.1587371993
 22
181.801304179
 32
0.0
 13
210.1587371993
 23
181.801304179
 33
0.0
  0
SOLID
  5
A0
330
9C
100
AcDbEntity
  8
SLD-0
100
AcDbTrace
 10
209.6492401543
 20
155.1233327276
 30
0.0
 11
210.1574254465
 21
158.4253042158
 31
0.0
 12
209.1414254481
 22
158.425361229
 32
0.0
 13
209.1414254481
 23
158.425361229
 33
0.0
  0
LINE
  5
A1
330
9C
100
AcDbEntity
  8
SLD-0
100
AcDbLine
 10
185.8970724874
 20
185.1046656365
 30
0.0
 11
210.6509224915
 21
185.103276565
 31
0.0
  0
LINE
  5
A2
330
9C
100
AcDbEntity
  8
SLD-0
100
AcDbLine
 10
185.8953901486
 20
155.1246656837
 30
0.0
 11
210.6492401527
 21
155.1232766122
 31
0.0
  0
LINE
  5
A3
330
9C
100
AcDbEntity
  8
SLD-0
100
AcDbLine
 10
209.6509224931
 20
185.1033326804
 30
0.0
 11
209.6492401543
 21
155.1233327276
 31
0.0
  0
MTEXT
  5
A4
330
9C
100
AcDbEntity
  8
SLD-0
100
AcDbMText
 10
205.1381776498
 20
167.1417372221
 30
0.0
 40
3.5
 41
0.0
 71
     1
 72
     1
  1
29,9800
  7
SLDTEXTSTYLE0
 11
5.611536900743497E-5
 21
0.9999999984255327
 31
0.0
 73
     1
 44
1.0
  0
ENDBLK
  5
9E
330
9C
100
AcDbEntity
  8
0
100
AcDbBlockEnd
  0
BLOCK
  5
A7
330
A6
100
AcDbEntity
  8
0
100
AcDbBlockBegin
  2
_D_2
 70
     0
 10
0.0
 20
0.0
 30
0.0
  3
_D_2
  1

  0
SOLID
  5
A9
330
A6
100
AcDbEntity
  8
SLD-0
100
AcDbTrace
 10
222.9432095901
 20
155.1290873887
 30
0.0
 11
222.4355884634
 21
151.8270291227
 31
0.0
 12
223.4515884567
 22
151.8271456981
 32
0.0
 13
223.4515884567
 23
151.8271456981
 33
0.0
  0
SOLID
  5
AA
330
A6
100
AcDbEntity
  8
SLD-0
100
AcDbTrace
 10
222.9466563662
 20
125.0890870077
 30
0.0
 11
223.4542774929
 21
128.3911452737
 31
0.0
 12
222.4382774996
 22
128.3910286983
 32
0.0
 13
222.4382774996
 23
128.3910286983
 33
0.0
  0
LINE
  5
AB
330
A6
100
AcDbEntity
  8
SLD-0
100
AcDbLine
 10
185.8953901436
 20
155.1248365386
 30
0.0
 11
223.9432095835
 21
155.1292021283
 31
0.0
  0
LINE
  5
AC
330
A6
100
AcDbEntity
  8
SLD-0
100
AcDbLine
 10
185.8988369197
 20
125.0848361576
 30
0.0
 11
223.9466563596
 21
125.0892017473
 31
0.0
  0
LINE
  5
AD
330
A6
100
AcDbEntity
  8
SLD-0
100
AcDbLine
 10
222.9432095901
 20
155.1290873887
 30
0.0
 11
222.9466563662
 21
125.0890870077
 31
0.0
  0
MTEXT
  5
AE
330
A6
100
AcDbEntity
  8
SLD-0
100
AcDbMText
 10
218.4354158542
 20
120.762485938
 30
0.0
 40
3.5
 41
0.0
 71
     1
 72
     1
  1
30,0400
  7
SLDTEXTSTYLE0
 11
-0.0001147395490961088
 21
0.9999999934174179
 31
0.0
 73
     1
 44
1.0
  0
ENDBLK
  5
A8
330
A6
100
AcDbEntity
  8
0
100
AcDbBlockEnd
  0
BLOCK
  5
B1
330
B0
100
AcDbEntity
  8
0
100
AcDbBlockBegin
  2
_D_3
 70
     0
 10
0.0
 20
0.0
 30
0.0
  3
_D_3
  1

  0
SOLID
  5
B3
330
B0
100
AcDbEntity
  8
SLD-0
100
AcDbTrace
 10
209.6526302007
 20
125.0833323498
 30
0.0
 11
209.1444449085
 21
121.7813608616
 31
0.0
 12
210.1604449069
 22
121.7813038484
 32
0.0
 13
210.1604449069
 23
121.7813038484
 33
0.0
  0
SOLID
  5
B4
330
B0
100
AcDbEntity
  8
SLD-0
100
AcDbTrace
 10
209.6509489842
 20
95.123332397
 30
0.0
 11
210.1591342764
 21
98.4253038852
 31
0.0
 12
209.143134278
 22
98.4253608984
 32
0.0
 13
209.143134278
 23
98.4253608984
 33
0.0
  0
LINE
  5
B5
330
B0
100
AcDbEntity
  8
SLD-0
100
AcDbLine
 10
185.8988369248
 20
125.0846653027
 30
0.0
 11
210.6526301991
 21
125.0832762344
 31
0.0
  0
LINE
  5
B6
330
B0
100
AcDbEntity
  8
SLD-0
100
AcDbLine
 10
185.8971557083
 20
95.1246653498
 30
0.0
 11
210.6509489826
 21
95.1232762816
 31
0.0
  0
LINE
  5
B7
330
B0
100
AcDbEntity
  8
SLD-0
100
AcDbLine
 10
209.6526302007
 20
125.0833323498
 30
0.0
 11
209.6509489842
 21
95.123332397
 31
0.0
  0
MTEXT
  5
B8
330
B0
100
AcDbEntity
  8
SLD-0
100
AcDbMText
 10
205.1398397562
 20
106.3091038726
 30
0.0
 40
3.5
 41
0.0
 71
     1
 72
     1
  1
29,9600
  7
SLDTEXTSTYLE0
 11
5.611536900477044E-5
 21
0.9999999984255327
 31
0.0
 73
     1
 44
1.0
  0
ENDBLK
  5
B2
330
B0
100
AcDbEntity
  8
0
100
AcDbBlockEnd
  0
BLOCK
  5
BB
330
BA
100
AcDbEntity
  8
0
100
AcDbBlockBegin
  2
_D_4
 70
     0
 10
0.0
 20
0.0
 30
0.0
  3
_D_4
  1

  0
SOLID
  5
BD
330
BA
100
AcDbEntity
  8
SLD-0
100
AcDbTrace
 10
227.4317093025
 20
95.1247214652
 30
0.0
 11
226.9237093025
 21
91.8227214652
 31
0.0
 12
227.9397093025
 22
91.8227214652
 32
0.0
 13
227.9397093025
 23
91.8227214652
 33
0.0
  0
SOLID
  5
BE
330
BA
100
AcDbEntity
  8
SLD-0
100
AcDbTrace
 10
227.4317093025
 20
65.0847214652
 30
0.0
 11
227.9397093025
 21
68.3867214652
 31
0.0
 12
226.9237093025
 22
68.3867214652
 32
0.0
 13
226.9237093025
 23
68.3867214652
 33
0.0
  0
LINE
  5
BF
330
BA
100
AcDbEntity
  8
SLD-0
100
AcDbLine
 10
185.8971557099
 20
95.1247214652
 30
0.0
 11
228.4317093025
 21
95.1247214652
 31
0.0
  0
LINE
  5
C0
330
BA
100
AcDbEntity
  8
SLD-0
100
AcDbLine
 10
185.8971557099
 20
65.0847214652
 30
0.0
 11
228.4317093025
 21
65.0847214652
 31
0.0
  0
LINE
  5
C1
330
BA
100
AcDbEntity
  8
SLD-0
100
AcDbLine
 10
227.4317093025
 20
95.1247214652
 30
0.0
 11
227.4317093025
 21
65.0847214652
 31
0.0
  0
MTEXT
  5
C2
330
BA
100
AcDbEntity
  8
SLD-0
100
AcDbMText
 10
222.9199723879
 20
61.7681834148
 30
0.0
 40
3.5
 41
0.0
 71
     1
 72
     1
  1
30,0400
  7
SLDTEXTSTYLE0
 11
-7.044195017643634E-15
 21
1.0
 31
0.0
 73
     1
 44
1.0
  0
ENDBLK
  5
BC
330
BA
100
AcDbEntity
  8
0
100
AcDbBlockEnd
  0
BLOCK
  5
C5
330
C4
100
AcDbEntity
  8
0
100
AcDbBlockBegin
  2
_D_5
 70
     0
 10
0.0
 20
0.0
 30
0.0
  3
_D_5
  1

  0
SOLID
  5
C7
330
C4
100
AcDbEntity
  8
SLD-0
100
AcDbTrace
 10
209.6509490232
 20
65.0847214652
 30
0.0
 11
209.1429490232
 21
61.7827214652
 31
0.0
 12
210.1589490232
 22
61.7827214652
 32
0.0
 13
210.1589490232
 23
61.7827214652
 33
0.0
  0
SOLID
  5
C8
330
C4
100
AcDbEntity
  8
SLD-0
100
AcDbTrace
 10
209.6509490232
 20
35.1933601952
 30
0.0
 11
210.1589490232
 21
38.4953601952
 31
0.0
 12
209.1429490232
 22
38.4953601952
 32
0.0
 13
209.1429490232
 23
38.4953601952
 33
0.0
  0
LINE
  5
C9
330
C4
100
AcDbEntity
  8
SLD-0
100
AcDbLine
 10
185.8971557099
 20
65.0847214652
 30
0.0
 11
210.6509490232
 21
65.0847214652
 31
0.0
  0
LINE
  5
CA
330
C4
100
AcDbEntity
  8
SLD-0
100
AcDbLine
 10
185.8971557099
 20
35.1933601952
 30
0.0
 11
210.6509490232
 21
35.1933601952
 31
0.0
  0
LINE
  5
CB
330
C4
100
AcDbEntity
  8
SLD-0
100
AcDbLine
 10
209.6509490232
 20
65.0847214652
 30
0.0
 11
209.6509490232
 21
35.1933601952
 31
0.0
  0
MTEXT
  5
CC
330
C4
100
AcDbEntity
  8
SLD-0
100
AcDbMText
 10
205.1392121086
 20
33.1949642967
 30
0.0
 40
3.5
 41
0.0
 71
     1
 72
     1
  1
29,8914
  7
SLDTEXTSTYLE0
 11
-8.820551857043885E-15
 21
1.0
 31
0.0
 73
     1
 44
1.0
  0
ENDBLK
  5
C6
330
C4
100
AcDbEntity
  8
0
100
AcDbBlockEnd
  0
BLOCK
  5
CF
330
CE
100
AcDbEntity
  8
0
100
AcDbBlockBegin
  2
_D_6
 70
     0
 10
0.0
 20
0.0
 30
0.0
  3
_D_6
  1

  0
SOLID
  5
D1
330
CE
100
AcDbEntity
  8
SLD-0
100
AcDbTrace
 10
50.6211585434
 20
185.1047217518
 30
0.0
 11
50.1131585434
 21
181.8027217518
 31
0.0
 12
51.1291585434
 22
181.8027217518
 32
0.0
 13
51.1291585434
 23
181.8027217518
 33
0.0
  0
SOLID
  5
D2
330
CE
100
AcDbEntity
  8
SLD-0
100
AcDbTrace
 10
50.6211585434
 20
35.1933601952
 30
0.0
 11
51.1291585434
 21
38.4953601952
 31
0.0
 12
50.1131585434
 22
38.4953601952
 32
0.0
 13
50.1131585434
 23
38.4953601952
 33
0.0
  0
LINE
  5
D3
330
CE
100
AcDbEntity
  8
SLD-0
100
AcDbLine
 10
103.8971557654
 20
185.1047217518
 30
0.0
 11
49.6211585434
 21
185.1047217518
 31
0.0
  0
LINE
  5
D4
330
CE
100
AcDbEntity
  8
SLD-0
100
AcDbLine
 10
103.8971557654
 20
35.1933601952
 30
0.0
 11
49.6211585434
 21
35.1933601952
 31
0.0
  0
LINE
  5
D5
330
CE
100
AcDbEntity
  8
SLD-0
100
AcDbLine
 10
50.6211585434
 20
185.1047217518
 30
0.0
 11
50.6211585434
 21
35.1933601952
 31
0.0
  0
MTEXT
  5
D6
330
CE
100
AcDbEntity
  8
SLD-0
100
AcDbMText
 10
46.1094216288
 20
37.7223310736
 30
0.0
 40
3.5
 41
0.0
 71
     1
 72
     1
  1
149,9114
  7
SLDTEXTSTYLE0
 11
-7.044195017643634E-15
 21
1.0
 31
0.0
 73
     1
 44
1.0
  0
ENDBLK
  5
D0
330
CE
100
AcDbEntity
  8
0
100
AcDbBlockEnd
  0
ENDSEC
  0
SECTION
  2
ENTITIES
  0
LINE
  5
74
330
1F
100
AcDbEntity
  8
SLD-0
  6
Continuous
 62
     7
370
    15
100
AcDbLine
 10
104.8971557654
 20
35.1933601952
 30
0.0
 11
104.8971557654
 21
185.1047217518
 31
0.0
  0
LINE
  5
75
330
1F
100
AcDbEntity
  8
SLD-0
  6
Continuous
 62
     7
370
    15
100
AcDbLine
 10
104.8971557654
 20
185.1047217518
 30
0.0
 11
184.897072489
 21
185.1047217518
 31
0.0
  0
LINE
  5
76
330
1F
100
AcDbEntity
  8
SLD-0
  6
Continuous
 62
     7
370
    15
100
AcDbLine
 10
184.897072489
 20
185.1047217518
 30
0.0
 11
184.8953901502
 21
155.124721799
 31
0.0
  0
LINE
  5
77
330
1F
100
AcDbEntity
  8
SLD-0
  6
Continuous
 62
     7
370
    15
100
AcDbLine
 10
184.8953901502
 20
155.124721799
 30
0.0
 11
175.8971557691
 21
155.1236893457
 31
0.0
  0
LINE
  5
78
330
1F
100
AcDbEntity
  8
SLD-0
  6
Continuous
 62
     7
370
    15
100
AcDbLine
 10
169.9002606767
 20
149.0833446993
 30
0.0
 11
169.9002606767
 21
131.0833446993
 31
0.0
  0
LINE
  5
79
330
1F
100
AcDbEntity
  8
SLD-0
  6
Continuous
 62
     7
370
    15
100
AcDbLine
 10
175.9006054815
 20
125.0836895437
 30
0.0
 11
184.8988369263
 21
125.084721418
 31
0.0
  0
LINE
  5
7A
330
1F
100
AcDbEntity
  8
SLD-0
  6
Continuous
 62
     7
370
    15
100
AcDbLine
 10
184.8988369263
 20
125.084721418
 30
0.0
 11
184.8971557099
 21
95.1247214652
 31
0.0
  0
LINE
  5
7B
330
1F
100
AcDbEntity
  8
SLD-0
  6
Continuous
 62
     7
370
    15
100
AcDbLine
 10
184.8971557099
 20
95.1247214652
 30
0.0
 11
175.897191994
 21
95.1247214652
 31
0.0
  0
LINE
  5
7C
330
1F
100
AcDbEntity
  8
SLD-0
  6
Continuous
 62
     7
370
    15
100
AcDbLine
 10
169.8971562232
 20
89.0847598424
 30
0.0
 11
169.8971562232
 21
71.0847101627
 31
0.0
  0
LINE
  5
7D
330
1F
100
AcDbEntity
  8
SLD-0
  6
Continuous
 62
     7
370
    15
100
AcDbLine
 10
175.8971675256
 20
65.0847214652
 30
0.0
 11
184.8971557099
 21
65.0847214652
 31
0.0
  0
LINE
  5
7E
330
1F
100
AcDbEntity
  8
SLD-0
  6
Continuous
 62
     7
370
    15
100
AcDbLine
 10
184.8971557099
 20
65.0847214652
 30
0.0
 11
184.8971557099
 21
35.1933601952
 31
0.0
  0
LINE
  5
7F
330
1F
100
AcDbEntity
  8
SLD-0
  6
Continuous
 62
     7
370
    15
100
AcDbLine
 10
184.8971557099
 20
35.1933601952
 30
0.0
 11
104.8971557654
 21
35.1933601952
 31
0.0
  0
LINE
  5
80
330
1F
100
AcDbEntity
  8
SLD-0
  6
Continuous
 62
     7
370
    15
100
AcDbLine
 10
169.8976425535
 20
95.1047219516
 30
0.0
 11
169.8971557654
 21
95.1047219516
 31
0.0
  0
LINE
  5
81
330
1F
100
AcDbEntity
  8
SLD-0
  6
Continuous
 62
     7
370
    15
100
AcDbLine
 10
169.8971557654
 20
95.1047219516
 30
0.0
 11
169.8971557654
 21
95.1042351577
 31
0.0
  0
ARC
  5
82
330
1F
100
AcDbEntity
  8
SLD-0
  6
Continuous
 62
     7
370
    15
100
AcDbCircle
 10
172.9774459901
 20
152.0253456337
 30
0.0
 40
4.257280699126608
100
AcDbArc
 50
46.7002118863
 51
135.0032842457
  0
ARC
  5
83
330
1F
100
AcDbEntity
  8
SLD-0
  6
Continuous
 62
     7
370
    15
100
AcDbCircle
 10
172.9774459901
 20
152.0253456337
 30
0.0
 40
4.257280699126608
100
AcDbArc
 50
135.0032842457
 51
223.7134153746
  0
ARC
  5
84
330
1F
100
AcDbEntity
  8
SLD-0
  6
Continuous
 62
     7
370
    15
100
AcDbCircle
 10
172.9002606767
 20
128.0833446993
 30
0.0
 40
4.242640687119305
100
AcDbArc
 50
135.0
 51
225.0065856655
  0
ARC
  5
85
330
1F
100
AcDbEntity
  8
SLD-0
  6
Continuous
 62
     7
370
    15
100
AcDbCircle
 10
172.9002606767
 20
128.0833446993
 30
0.0
 40
4.24264068711927
100
AcDbArc
 50
225.0065856655
 51
315.0065856655
  0
ARC
  5
86
330
1F
100
AcDbEntity
  8
SLD-0
  6
Continuous
 62
     7
370
    15
100
AcDbCircle
 10
172.8971741086
 20
92.1047406538
 30
0.0
 40
4.256805306077631
100
AcDbArc
 50
45.189997917
 51
225.189997917
  0
ARC
  5
87
330
1F
100
AcDbEntity
  8
SLD-0
  6
Continuous
 62
     7
370
    15
100
AcDbCircle
 10
172.897168039
 20
68.0847219785
 30
0.0
 40
4.24264068711928
100
AcDbArc
 50
135.0002256647
 51
224.9997645312
  0
ARC
  5
88
330
1F
100
AcDbEntity
  8
SLD-0
  6
Continuous
 62
     7
370
    15
100
AcDbCircle
 10
172.897168039
 20
68.0847219785
 30
0.0
 40
4.24264068711928
100
AcDbArc
 50
224.9997645312
 51
314.9999901959
  0
CIRCLE
  5
89
330
1F
100
AcDbEntity
  8
SLD-0
  6
Continuous
 62
     7
370
    15
100
AcDbCircle
 10
128.7455715879
 20
65.1047219516
 30
0.0
 40
12.0
  0
CIRCLE
  5
8A
330
1F
100
AcDbEntity
  8
SLD-0
100
AcDbCircle
 10
144.4981841406
 20
80.6179232283
 30
0.0
 40
2.999999999999993
  0
CIRCLE
  5
8B
330
1F
100
AcDbEntity
  8
SLD-0
100
AcDbCircle
 10
113.45
 20
80.6179232283
 30
0.0
 40
3.00000000000002
  0
CIRCLE
  5
8C
330
1F
100
AcDbEntity
  8
SLD-0
100
AcDbCircle
 10
113.45
 20
49.6
 30
0.0
 40
3.000000000000018
  0
CIRCLE
  5
8D
330
1F
100
AcDbEntity
  8
SLD-0
100
AcDbCircle
 10
143.9964950595
 20
49.6
 30
0.0
 40
2.999999999999991
  0
DIMENSION
  5
8E
330
1F
100
AcDbEntity
  8
SLD-0
100
AcDbDimension
  2
_D
 10
79.5356659135
 20
185.1047217518
 30
0.0
 11
79.5356659135
 21
156.0989139422
 31
0.0
 70
   160
  1
<>
 71
     2
 42
-1.0
  3
SLDDIMSTYLE0
100
AcDbAlignedDimension
 13
104.8971557654
 23
35.1933601952
 33
0.0
 14
104.8971557654
 24
185.1047217518
 34
0.0
 50
90.0
100
AcDbRotatedDimension
  0
DIMENSION
  5
9A
330
1F
100
AcDbEntity
  8
SLD-0
100
AcDbDimension
  2
_D_1
 10
209.6492401543
 20
155.1233327276
 30
0.0
 11
209.6503861992
 21
175.5463452355
 31
0.0
 70
   160
  1
<>
 71
     2
 42
-1.0
  3
SLDDIMSTYLE1
100
AcDbAlignedDimension
 13
184.897072489
 23
185.1047217518
 33
0.0
 14
184.8953901502
 24
155.124721799
 34
0.0
 50
89.9967848262
100
AcDbRotatedDimension
  0
DIMENSION
  5
A5
330
1F
100
AcDbEntity
  8
SLD-0
100
AcDbDimension
  2
_D_2
 10
222.9466563662
 20
125.0890870077
 30
0.0
 11
222.9461883691
 21
129.1678647616
 31
0.0
 70
   160
  1
<>
 71
     2
 42
-1.0
  3
SLDDIMSTYLE1
100
AcDbAlignedDimension
 13
184.8953901502
 23
155.124721799
 33
0.0
 14
184.8988369263
 24
125.084721418
 34
0.0
 50
-89.9934259081
100
AcDbRotatedDimension
  0
DIMENSION
  5
AF
330
1F
100
AcDbEntity
  8
SLD-0
100
AcDbDimension
  2
_D_3
 10
209.6509489842
 20
95.123332397
 30
0.0
 11
209.6520483056
 21
114.7137118859
 31
0.0
 70
   160
  1
<>
 71
     2
 42
-1.0
  3
SLDDIMSTYLE1
100
AcDbAlignedDimension
 13
184.8988369263
 23
125.084721418
 33
0.0
 14
184.8971557099
 24
95.1247214652
 34
0.0
 50
89.9967848262
100
AcDbRotatedDimension
  0
DIMENSION
  5
B9
330
1F
100
AcDbEntity
  8
SLD-0
100
AcDbDimension
  2
_D_4
 10
227.4317093025
 20
65.0847214652
 30
0.0
 11
227.4317093025
 21
70.1730446191
 31
0.0
 70
   160
  1
<>
 71
     2
 42
-1.0
  3
SLDDIMSTYLE1
100
AcDbAlignedDimension
 13
184.8971557099
 23
95.1247214652
 33
0.0
 14
184.8971557099
 24
65.0847214652
 34
0.0
 50
90.0
100
AcDbRotatedDimension
  0
DIMENSION
  5
C3
330
1F
100
AcDbEntity
  8
SLD-0
100
AcDbDimension
  2
_D_5
 10
209.6509490232
 20
35.1933601952
 30
0.0
 11
209.6509490232
 21
41.599825501
 31
0.0
 70
   160
  1
<>
 71
     2
 42
-1.0
  3
SLDDIMSTYLE1
100
AcDbAlignedDimension
 13
184.8971557099
 23
65.0847214652
 33
0.0
 14
184.8971557099
 24
35.1933601952
 34
0.0
 50
90.0
100
AcDbRotatedDimension
  0
DIMENSION
  5
CD
330
1F
100
AcDbEntity
  8
SLD-0
100
AcDbDimension
  2
_D_6
 10
50.6211585434
 20
35.1933601952
 30
0.0
 11
50.6211585434
 21
47.4202479911
 31
0.0
 70
   160
  1
<>
 71
     2
 42
-1.0
  3
SLDDIMSTYLE0
100
AcDbAlignedDimension
 13
104.8971557654
 23
185.1047217518
 33
0.0
 14
104.8971557654
 24
35.1933601952
 34
0.0
 50
90.0
100
AcDbRotatedDimension
  0
ENDSEC
  0
SECTION
  2
OBJECTS
  0
DICTIONARY
  5
C
330
0
100
AcDbDictionary
281
     1
  3
ACAD_GROUP
350
D
  3
ACAD_LAYOUT
350
1A
  3
ACAD_MLINESTYLE
350
17
  3
ACAD_PLOTSETTINGS
350
19
  3
ACAD_PLOTSTYLENAME
350
E
  3
ACAD_SCALELIST
350
47
  0
DICTIONARY
  5
D
102
{ACAD_REACTORS
330
C
102
}
330
C
100
AcDbDictionary
281
     1
  0
DICTIONARY
  5
1A
102
{ACAD_REACTORS
330
C
102
}
330
C
100
AcDbDictionary
281
     1
  3
Layout1
350
1E
  3
Layout2
350
26
  3
Model
350
22
  0
DICTIONARY
  5
17
102
{ACAD_REACTORS
330
C
102
}
330
C
100
AcDbDictionary
281
     1
  3
Standard
350
18
  0
DICTIONARY
  5
19
102
{ACAD_REACTORS
330
C
102
}
330
C
100
AcDbDictionary
281
     1
  0
ACDBDICTIONARYWDFLT
  5
E
102
{ACAD_REACTORS
330
C
102
}
330
C
100
AcDbDictionary
281
     1
  3
Normal
350
F
100
AcDbDictionaryWithDefault
340
F
  0
DICTIONARY
  5
47
102
{ACAD_REACTORS
330
C
102
}
330
C
100
AcDbDictionary
281
     1
  3
A0
350
48
  3
A1
350
49
  3
A2
350
4A
  3
A3
350
4B
  3
A4
350
4C
  3
A5
350
4D
  3
A6
350
4E
  3
A7
350
4F
  3
A8
350
50
  3
A9
350
51
  3
B0
350
52
  3
B1
350
53
  3
B2
350
54
  3
B3
350
55
  3
B4
350
56
  3
B5
350
57
  3
B6
350
58
  3
B7
350
59
  3
B8
350
5A
  3
B9
350
5B
  3
C0
350
5C
  3
C1
350
5D
  3
C2
350
5E
  3
C3
350
5F
  3
C4
350
60
  3
C5
350
61
  3
C6
350
62
  3
C7
350
63
  3
C8
350
64
  3
C9
350
65
  3
D0
350
66
  3
D1
350
67
  3
D2
350
68
  0
LAYOUT
  5
1E
102
{ACAD_REACTORS
330
1A
102
}
330
1A
100
AcDbPlotSettings
  1

  2
none_device
  4

  6

 40
0.0
 41
0.0
 42
0.0
 43
0.0
 44
0.0
 45
0.0
 46
0.0
 47
0.0
 48
0.0
 49
0.0
140
0.0
141
0.0
142
1.0
143
1.0
 70
   688
 72
     1
 73
     0
 74
     5
  7

 75
    16
147
1.0
148
0.0
149
0.0
100
AcDbLayout
  1
Layout1
 70
     1
 71
     1
 10
0.0
 20
0.0
 11
420.0
 21
297.0
 12
0.0
 22
0.0
 32
0.0
 14
1.0000000000E+20
 24
1.0000000000E+20
 34
1.0000000000E+20
 15
-1.0000000000E+20
 25
-1.0000000000E+20
 35
-1.0000000000E+20
146
0.0
 13
0.0
 23
0.0
 33
0.0
 16
1.0
 26
0.0
 36
0.0
 17
0.0
 27
1.0
 37
0.0
 76
     0
330
1B
  0
LAYOUT
  5
26
102
{ACAD_REACTORS
330
1A
102
}
330
1A
100
AcDbPlotSettings
  1

  2
none_device
  4

  6

 40
0.0
 41
0.0
 42
0.0
 43
0.0
 44
0.0
 45
0.0
 46
0.0
 47
0.0
 48
0.0
 49
0.0
140
0.0
141
0.0
142
1.0
143
1.0
 70
   688
 72
     1
 73
     0
 74
     5
  7

 75
    16
147
1.0
148
0.0
149
0.0
100
AcDbLayout
  1
Layout2
 70
     1
 71
     2
 10
0.0
 20
0.0
 11
0.0
 21
0.0
 12
0.0
 22
0.0
 32
0.0
 14
0.0
 24
0.0
 34
0.0
 15
0.0
 25
0.0
 35
0.0
146
0.0
 13
0.0
 23
0.0
 33
0.0
 16
1.0
 26
0.0
 36
0.0
 17
0.0
 27
1.0
 37
0.0
 76
     0
330
23
  0
LAYOUT
  5
22
102
{ACAD_REACTORS
330
1A
102
}
330
1A
100
AcDbPlotSettings
  1

  2
none_device
  4
Letter_(8.50_x_11.00_Inches)
  6

 40
6.35
 41
6.35
 42
6.35000508
 43
6.35000508
 44
215.9
 45
279.4
 46
0.0
 47
0.0
 48
0.0
 49
0.0
140
0.0
141
0.0
142
1.0
143
1.0
 70
  1712
 72
     1
 73
     0
 74
     0
  7

 75
     0
147
1.0
148
0.0
149
0.0
100
AcDbLayout
  1
Model
 70
     1
 71
     0
 10
0.0
 20
0.0
 11
297.0
 21
210.0
 12
0.0
 22
0.0
 32
0.0
 14
0.0
 24
0.0
 34
0.0
 15
297.0
 25
210.0
 35
0.0
146
0.0
 13
0.0
 23
0.0
 33
0.0
 16
1.0
 26
0.0
 36
0.0
 17
0.0
 27
1.0
 37
0.0
 76
     0
330
1F
331
29
  0
MLINESTYLE
  5
18
102
{ACAD_REACTORS
330
17
102
}
330
17
100
AcDbMlineStyle
  2
Standard
 70
     0
  3

 62
   256
 51
90.0
 52
90.0
 71
     2
 49
0.5
 62
   256
  6
BYLAYER
 49
-0.5
 62
   256
  6
BYLAYER
  0
ACDBPLACEHOLDER
  5
F
102
{ACAD_REACTORS
330
E
102
}
330
E
  0
SCALE
  5
48
102
{ACAD_REACTORS
330
47
102
}
330
47
100
AcDbScale
 70
     0
300
1:1
140
1.0
141
1.0
290
     1
  0
SCALE
  5
49
102
{ACAD_REACTORS
330
47
102
}
330
47
100
AcDbScale
 70
     0
300
1:2
140
1.0
141
2.0
290
     0
  0
SCALE
  5
4A
102
{ACAD_REACTORS
330
47
102
}
330
47
100
AcDbScale
 70
     0
300
1:4
140
1.0
141
4.0
290
     0
  0
SCALE
  5
4B
102
{ACAD_REACTORS
330
47
102
}
330
47
100
AcDbScale
 70
     0
300
1:5
140
1.0
141
5.0
290
     0
  0
SCALE
  5
4C
102
{ACAD_REACTORS
330
47
102
}
330
47
100
AcDbScale
 70
     0
300
1:8
140
1.0
141
8.0
290
     0
  0
SCALE
  5
4D
102
{ACAD_REACTORS
330
47
102
}
330
47
100
AcDbScale
 70
     0
300
1:10
140
1.0
141
10.0
290
     0
  0
SCALE
  5
4E
102
{ACAD_REACTORS
330
47
102
}
330
47
100
AcDbScale
 70
     0
300
1:16
140
1.0
141
16.0
290
     0
  0
SCALE
  5
4F
102
{ACAD_REACTORS
330
47
102
}
330
47
100
AcDbScale
 70
     0
300
1:20
140
1.0
141
20.0
290
     0
  0
SCALE
  5
50
102
{ACAD_REACTORS
330
47
102
}
330
47
100
AcDbScale
 70
     0
300
1:30
140
1.0
141
30.0
290
     0
  0
SCALE
  5
51
102
{ACAD_REACTORS
330
47
102
}
330
47
100
AcDbScale
 70
     0
300
1:40
140
1.0
141
40.0
290
     0
  0
SCALE
  5
52
102
{ACAD_REACTORS
330
47
102
}
330
47
100
AcDbScale
 70
     0
300
1:50
140
1.0
141
50.0
290
     0
  0
SCALE
  5
53
102
{ACAD_REACTORS
330
47
102
}
330
47
100
AcDbScale
 70
     0
300
1:100
140
1.0
141
100.0
290
     0
  0
SCALE
  5
54
102
{ACAD_REACTORS
330
47
102
}
330
47
100
AcDbScale
 70
     0
300
2:1
140
2.0
141
1.0
290
     0
  0
SCALE
  5
55
102
{ACAD_REACTORS
330
47
102
}
330
47
100
AcDbScale
 70
     0
300
4:1
140
4.0
141
1.0
290
     0
  0
SCALE
  5
56
102
{ACAD_REACTORS
330
47
102
}
330
47
100
AcDbScale
 70
     0
300
8:1
140
8.0
141
1.0
290
     0
  0
SCALE
  5
57
102
{ACAD_REACTORS
330
47
102
}
330
47
100
AcDbScale
 70
     0
300
10:1
140
10.0
141
1.0
290
     0
  0
SCALE
  5
58
102
{ACAD_REACTORS
330
47
102
}
330
47
100
AcDbScale
 70
     0
300
100:1
140
100.0
141
1.0
290
     0
  0
SCALE
  5
59
102
{ACAD_REACTORS
330
47
102
}
330
47
100
AcDbScale
 70
     0
300
1/128" = 1'-0"
140
0.0078125
141
12.0
290
     0
  0
SCALE
  5
5A
102
{ACAD_REACTORS
330
47
102
}
330
47
100
AcDbScale
 70
     0
300
1/64" = 1'-0"
140
0.015625
141
12.0
290
     0
  0
SCALE
  5
5B
102
{ACAD_REACTORS
330
47
102
}
330
47
100
AcDbScale
 70
     0
300
1/32" = 1'-0"
140
0.03125
141
12.0
290
     0
  0
SCALE
  5
5C
102
{ACAD_REACTORS
330
47
102
}
330
47
100
AcDbScale
 70
     0
300
1/16" = 1'-0"
140
0.0625
141
12.0
290
     0
  0
SCALE
  5
5D
102
{ACAD_REACTORS
330
47
102
}
330
47
100
AcDbScale
 70
     0
300
3/32" = 1'-0"
140
0.09375
141
12.0
290
     0
  0
SCALE
  5
5E
102
{ACAD_REACTORS
330
47
102
}
330
47
100
AcDbScale
 70
     0
300
1/8" = 1'-0"
140
0.125
141
12.0
290
     0
  0
SCALE
  5
5F
102
{ACAD_REACTORS
330
47
102
}
330
47
100
AcDbScale
 70
     0
300
3/16" = 1'-0"
140
0.1875
141
12.0
290
     0
  0
SCALE
  5
60
102
{ACAD_REACTORS
330
47
102
}
330
47
100
AcDbScale
 70
     0
300
1/4" = 1'-0"
140
0.25
141
12.0
290
     0
  0
SCALE
  5
61
102
{ACAD_REACTORS
330
47
102
}
330
47
100
AcDbScale
 70
     0
300
3/8" = 1'-0"
140
0.375
141
12.0
290
     0
  0
SCALE
  5
62
102
{ACAD_REACTORS
330
47
102
}
330
47
100
AcDbScale
 70
     0
300
1/2" = 1'-0"
140
0.5
141
12.0
290
     0
  0
SCALE
  5
63
102
{ACAD_REACTORS
330
47
102
}
330
47
100
AcDbScale
 70
     0
300
3/4" = 1'-0"
140
0.75
141
12.0
290
     0
  0
SCALE
  5
64
102
{ACAD_REACTORS
330
47
102
}
330
47
100
AcDbScale
 70
     0
300
1" = 1'-0"
140
1.0
141
12.0
290
     0
  0
SCALE
  5
65
102
{ACAD_REACTORS
330
47
102
}
330
47
100
AcDbScale
 70
     0
300
1-1/2" = 1'-0"
140
1.5
141
12.0
290
     0
  0
SCALE
  5
66
102
{ACAD_REACTORS
330
47
102
}
330
47
100
AcDbScale
 70
     0
300
3" = 1'-0"
140
3.0
141
12.0
290
     0
  0
SCALE
  5
67
102
{ACAD_REACTORS
330
47
102
}
330
47
100
AcDbScale
 70
     0
300
6" = 1'-0"
140
6.0
141
12.0
290
     0
  0
SCALE
  5
68
102
{ACAD_REACTORS
330
47
102
}
330
47
100
AcDbScale
 70
     0
300
1'-0" = 1'-0"
140
12.0
141
12.0
290
     0
  0
ENDSEC
  0
EOF
